# xmcd
#
# Track frame offsets: 
#        150
#        14127
#        35282
#        56107
#        79535
#        98412
#        114334
#        131709
#        148341
#        168934
#        182199
#        195212
#        208816
#        223795
#        243827
#        261266
#        277737
#
# Disc length: 3925 seconds
#
# Revision: 0
# Processed by: cddbd v1.4PL0 Copyright (c) Steve Scherf et al.
# Submitted via: ExactAudioCopy v0.90b4
#
DISCID=f10f5311
DTITLE=Shade of Blue - Them Ol' Guitar Blues
DYEAR=2001
DGENRE=
TTITLE0=Boom Boom
TTITLE1=The Day I Cry For You
TTITLE2=They'll Get You In The End
TTITLE3=Baloney Again
TTITLE4=Mean City Blues
TTITLE5=Moanin'
TTITLE6=House of the Rising Sun
TTITLE7=Georgia On My Mind
TTITLE8=Mr Lucky
TTITLE9=Tell Me What I Say
TTITLE10=Too Many Cooks
TTITLE11=Jump Up Blues
TTITLE12=Green Onions
TTITLE13=Every Day I Have The Blues
TTITLE14=Bags Groove
TTITLE15=Dark Blues
TTITLE16=Don't Start Till You Get The Blues
EXTD=
EXTT0=
EXTT1=
EXTT2=
EXTT3=
EXTT4=
EXTT5=
EXTT6=
EXTT7=
EXTT8=
EXTT9=
EXTT10=
EXTT11=
EXTT12=
EXTT13=
EXTT14=
EXTT15=
EXTT16=
PLAYORDER=
